# xmcd
#
# Track frame offsets: 
#        150
#        15184
#        31990
#        50089
#        73087
#        97907
#        114195
#        133360
#        144535
#        159462
#        181687
#        206325
#
# Disc length: 2941 seconds
#
# Revision: 0
# Processed by: cddbd v1.4PL0 Copyright (c) Steve Scherf et al.
# Submitted via: ExactAudioCopy v0.90b4
#
DISCID=9a0b7b0c
DTITLE=Boppin' Blues Band - Sold Out
DYEAR=1997
DGENRE=Blues
TTITLE0=Next Time You See Me
TTITLE1=Juke Joint Cafe
TTITLE2=I Dig My Job
TTITLE3=Dear John
TTITLE4=Just Got Back From Baby's
TTITLE5=Les Blues de Loups
TTITLE6=Trop Beau
TTITLE7=Blowin' Like Hell
TTITLE8=18 Miles From Memphis
TTITLE9=Nine Lives
TTITLE10=On se Retrouvera
TTITLE11=These Blues You Gave Me
EXTD=
EXTT0=
EXTT1=
EXTT2=
EXTT3=
EXTT4=
EXTT5=
EXTT6=
EXTT7=
EXTT8=
EXTT9=
EXTT10=
EXTT11=
PLAYORDER=
